<svg width="24" height="24" viewBox="0 0 24 24" fill="none" xmlns="http://www.w3.org/2000/svg">
<g clip-path="url(#clip0_206_493)">
<path fill-rule="evenodd" clip-rule="evenodd" d="M12 3.80002C14.7 3.80002 15 3.80002 16 3.90002C17 3.90002 17.5 4.10002 17.9 4.20002C18.4 4.40002 18.7 4.60002 19 5.00002C19.3 5.30002 19.6 5.70002 19.7 6.10002C19.9 6.50002 20.1 7.00002 20.1 8.00002C20.1 9.10002 20.2 9.40002 20.2 12C20.2 14.6 20.2 15 20.1 16C20.1 17 19.9 17.5 19.8 17.9C19.6 18.4 19.4 18.7 19.1 19C18.8 19.3 18.4 19.6 18 19.7C17.6 19.8 17.1 20 16.1 20C15 20 14.7 20.1 12.1 20.1C9.5 20.1 9.1 20.1 8.1 20C7.1 20 6.6 19.8 6.2 19.7C5.6 19.6 5.3 19.4 5 19C4.7 18.7 4.4 18.3 4.3 17.9C4.1 17.5 3.9 17 3.9 16C3.9 14.9 3.8 14.6 3.8 12C3.8 9.40002 3.8 9.00002 3.9 8.00002C3.9 7.00002 4.1 6.50002 4.2 6.10002C4.4 5.60002 4.6 5.30002 5 5.00002C5.3 4.70002 5.7 4.40002 6.1 4.30002C6.5 4.10002 7 3.90002 8 3.90002C9 3.80002 9.3 3.80002 12 3.80002M12 2.00002C9.3 2.00002 8.9 2.00002 7.9 2.10002C6.8 2.10002 6.1 2.30002 5.5 2.60002C4.8 2.80002 4.2 3.10002 3.7 3.70002C3.1 4.20002 2.8 4.80002 2.5 5.40002C2.3 6.10002 2.1 6.80002 2.1 7.90002C2 8.90002 2 9.30002 2 12C2 14.7 2 15.1 2.1 16.1C2.1 17.2 2.3 17.9 2.6 18.5C2.9 19.2 3.2 19.7 3.8 20.3C4.4 20.9 4.9 21.2 5.6 21.5C6.2 21.7 7 21.9 8 22C8.9 22 9.3 22 12 22C14.7 22 15.1 22 16.1 21.9C17.2 21.9 17.9 21.7 18.5 21.4C19.2 21.1 19.7 20.8 20.3 20.2C20.9 19.6 21.2 19.1 21.5 18.4C21.7 17.8 21.9 17 22 16C22 14.9 22.1 14.6 22.1 11.9C22.1 9.20002 22.1 8.80002 22 7.80002C22 6.70002 21.8 6.00002 21.5 5.40002C21.2 4.70002 20.9 4.20002 20.3 3.60002C19.7 3.00002 19.2 2.70002 18.5 2.40002C17.9 2.20002 17.1 2.00002 16.1 1.90002C15.1 2.00002 14.7 2.00002 12 2.00002Z" fill="black"/>
<path fill-rule="evenodd" clip-rule="evenodd" d="M12 6.90002C9.19999 6.90002 6.89999 9.20002 6.89999 12C6.89999 14.8 9.19999 17.1 12 17.1C14.8 17.1 17.1 14.8 17.1 12C17.1 9.20002 14.8 6.90002 12 6.90002ZM12 15.3C10.2 15.3 8.69999 13.8 8.69999 12C8.69999 10.2 10.2 8.70002 12 8.70002C13.8 8.70002 15.3 10.2 15.3 12C15.3 13.8 13.8 15.3 12 15.3Z" fill="black"/>
</g>
<defs>
<clipPath id="clip0_206_493">
<rect width="24" height="24" fill="white"/>
</clipPath>
</defs>
</svg>
