<svg width="24" height="24" viewBox="0 0 24 24" fill="none" xmlns="http://www.w3.org/2000/svg">
<g clip-path="url(#clip0_206_492)">
<path d="M8.4 20C15.8 20 19.8 13.8 19.8 8.5C19.8 8.3 19.8 8.2 19.8 8C20.6 7.4 21.3 6.7 21.8 5.9C21.1 6.2 20.3 6.4 19.5 6.5C20.3 6 21 5.2 21.3 4.3C20.5 4.8 19.7 5.1 18.8 5.3C17.9 4.5 16.9 4 15.8 4C13.6 4 11.8 5.8 11.8 8C11.8 8.3 11.8 8.6 11.9 8.9C8.5 8.8 5.6 7.2 3.6 4.7C3.3 5.3 3.1 6 3.1 6.8C3.1 8.2 3.8 9.4 4.9 10.2C4.2 10.2 3.6 10 3.1 9.7C3.1 9.7 3.1 9.7 3.1 9.8C3.1 11.8 4.5 13.4 6.3 13.8C6 13.9 5.6 13.9 5.2 13.9C4.9 13.9 4.7 13.9 4.5 13.8C5 15.4 6.5 16.6 8.2 16.6C6.8 17.7 5.1 18.3 3.2 18.3C2.9 18.3 2.6 18.3 2.2 18.2C4 19.3 6.1 20 8.4 20Z" fill="black"/>
</g>
<defs>
<clipPath id="clip0_206_492">
<rect width="24" height="24" fill="white"/>
</clipPath>
</defs>
</svg>
